<svg width="1042" height="251" viewBox="0 0 1042 251" fill="none" xmlns="http://www.w3.org/2000/svg">
<path d="M398.206 128.32H378.19L372.646 142H365.734L388.486 87.784H388.918L411.67 142H403.606L398.206 128.32ZM395.83 122.272L388.414 103.264L380.71 122.272H395.83ZM438.826 110.968C441.514 110.968 443.962 111.616 446.17 112.912C448.426 114.208 450.202 116.032 451.498 118.384C452.794 120.736 453.442 123.472 453.442 126.592C453.442 129.856 452.746 132.712 451.354 135.16C449.962 137.608 448.066 139.48 445.666 140.776C443.314 142.072 440.746 142.72 437.962 142.72C435.514 142.72 433.282 142.24 431.266 141.28C429.298 140.32 427.69 139.024 426.442 137.392V142H419.746V86.2H426.442V116.152C427.69 114.568 429.394 113.32 431.554 112.408C433.762 111.448 436.186 110.968 438.826 110.968ZM436.522 136.96C439.45 136.96 441.85 135.976 443.722 134.008C445.642 132.04 446.602 129.568 446.602 126.592C446.602 124.672 446.146 122.944 445.234 121.408C444.37 119.824 443.17 118.576 441.634 117.664C440.098 116.752 438.394 116.296 436.522 116.296C434.074 116.296 431.914 116.968 430.042 118.312C428.218 119.608 427.018 121.336 426.442 123.496V129.544C427.018 131.704 428.218 133.48 430.042 134.872C431.866 136.264 434.026 136.96 436.522 136.96ZM459.834 126.808C459.834 123.88 460.53 121.216 461.922 118.816C463.362 116.368 465.33 114.448 467.826 113.056C470.37 111.664 473.226 110.968 476.394 110.968C479.562 110.968 482.37 111.664 484.818 113.056C487.314 114.448 489.234 116.344 490.578 118.744C491.97 121.144 492.666 123.832 492.666 126.808C492.666 129.784 491.97 132.496 490.578 134.944C489.234 137.344 487.314 139.24 484.818 140.632C482.322 142.024 479.466 142.72 476.25 142.72C473.13 142.72 470.322 142.072 467.826 140.776C465.33 139.432 463.362 137.56 461.922 135.16C460.53 132.76 459.834 129.976 459.834 126.808ZM466.602 126.88C466.602 128.752 467.01 130.48 467.826 132.064C468.69 133.648 469.842 134.896 471.282 135.808C472.77 136.72 474.402 137.176 476.178 137.176C478.962 137.176 481.266 136.192 483.09 134.224C484.914 132.256 485.826 129.808 485.826 126.88C485.826 123.952 484.914 121.504 483.09 119.536C481.266 117.52 478.962 116.512 476.178 116.512C474.354 116.512 472.722 116.992 471.282 117.952C469.842 118.864 468.69 120.112 467.826 121.696C467.01 123.28 466.602 125.008 466.602 126.88ZM529.38 112.192V142H523.332L522.9 136.312C521.892 138.328 520.332 139.984 518.22 141.28C516.108 142.528 513.756 143.152 511.164 143.152C508.428 143.152 506.172 142.336 504.396 140.704C502.668 139.024 501.756 136.864 501.66 134.224V112.192H508.356V131.848C508.452 133.528 508.932 134.872 509.796 135.88C510.708 136.84 512.052 137.344 513.828 137.392C515.46 137.392 516.948 136.912 518.292 135.952C519.636 134.944 520.692 133.576 521.46 131.848C522.276 130.12 522.684 128.2 522.684 126.088V112.192H529.38ZM550.683 99.088V112.264H558.819V117.592H550.683V142H543.915V117.592H538.443V112.264H543.915V99.088H550.683ZM597.754 123.568C597.754 125.872 598.306 127.96 599.41 129.832C600.514 131.656 602.002 133.12 603.874 134.224C605.794 135.28 607.906 135.808 610.21 135.808C612.61 135.808 614.77 135.28 616.69 134.224C618.658 133.168 620.194 131.704 621.298 129.832C622.402 127.96 622.954 125.872 622.954 123.568V89.944H629.794V123.784C629.794 127.48 628.93 130.768 627.202 133.648C625.474 136.48 623.122 138.688 620.146 140.272C617.17 141.808 613.858 142.576 610.21 142.576C606.61 142.576 603.322 141.808 600.346 140.272C597.37 138.688 595.018 136.48 593.29 133.648C591.61 130.768 590.77 127.48 590.77 123.784V89.944H597.754V123.568ZM671.08 99.232C669.208 98.224 667.216 97.408 665.104 96.784C662.992 96.16 661 95.848 659.128 95.848C656.296 95.848 654.04 96.496 652.36 97.792C650.728 99.04 649.912 100.768 649.912 102.976C649.912 105.136 650.872 106.912 652.792 108.304C654.76 109.648 657.544 110.992 661.144 112.336C663.832 113.296 666.088 114.352 667.912 115.504C669.784 116.608 671.32 118.168 672.52 120.184C673.768 122.152 674.392 124.672 674.392 127.744C674.392 130.528 673.696 133.048 672.304 135.304C670.912 137.56 668.92 139.336 666.328 140.632C663.784 141.928 660.784 142.576 657.328 142.576C654.112 142.576 651.016 142.072 648.04 141.064C645.064 140.008 642.448 138.688 640.192 137.104L643.288 131.56C645.064 132.904 647.2 134.056 649.696 135.016C652.192 135.928 654.52 136.384 656.68 136.384C659.464 136.384 661.888 135.664 663.952 134.224C666.064 132.784 667.12 130.648 667.12 127.816C667.12 125.416 666.232 123.52 664.456 122.128C662.728 120.688 660.28 119.344 657.112 118.096C654.184 116.992 651.736 115.912 649.768 114.856C647.848 113.8 646.192 112.36 644.8 110.536C643.408 108.664 642.712 106.336 642.712 103.552C642.712 99.472 644.128 96.184 646.96 93.688C649.84 91.144 653.56 89.8 658.12 89.656C663.736 89.656 668.944 91.048 673.744 93.832L671.08 99.232Z" fill="#1BA364"/>
<path d="M349.806 46.5454L313.427 43L310 71.4546L346.38 75L349.806 46.5454Z" fill="#1BA364"/>
<path d="M400.71 24.9417L391.047 24L390 32.6931L399.663 33.6348L400.71 24.9417Z" fill="#1BA364"/>
<line x1="424.21" y1="1.11295" x2="457.21" y2="46.113" stroke="#1BA364" stroke-width="3"/>
<path d="M504.363 36.0474C508.982 36.0474 512.726 32.6789 512.726 28.5237C512.726 24.3685 508.982 21 504.363 21C499.744 21 496 24.3685 496 28.5237C496 32.6789 499.744 36.0474 504.363 36.0474Z" fill="#1BA364"/>
<line x1="597.16" y1="5.16153" x2="553.949" y2="40.4714" stroke="#1BA364" stroke-width="3"/>
<mask id="path-7-inside-1" fill="white">
<path d="M663.48 40.7622C656.974 36.8529 652.833 28.2601 651.122 15.1956C651.104 15.012 651.231 14.8004 651.47 14.8291C651.663 14.8294 651.898 14.9711 651.891 15.197C653.62 28.4451 657.859 36.9817 664.496 40.5664C669.929 43.4853 675.419 42.4647 681.272 41.3742C687.099 40.326 693.097 39.2075 698.954 42.3813C705.45 45.8811 709.737 53.6976 711.706 65.4777C711.771 65.6896 711.597 65.8728 711.379 65.9148C711.162 65.9567 710.951 65.7728 710.886 65.5608C708.956 54.035 704.829 46.4871 698.595 43.0867C693.02 40.0828 687.168 41.1733 681.485 42.1936C675.778 43.2561 669.852 44.3606 664.136 41.2718C663.952 41.0455 663.716 40.9039 663.48 40.7622Z"/>
</mask>
<path d="M663.48 40.7622C656.974 36.8529 652.833 28.2601 651.122 15.1956C651.104 15.012 651.231 14.8004 651.47 14.8291C651.663 14.8294 651.898 14.9711 651.891 15.197C653.62 28.4451 657.859 36.9817 664.496 40.5664C669.929 43.4853 675.419 42.4647 681.272 41.3742C687.099 40.326 693.097 39.2075 698.954 42.3813C705.45 45.8811 709.737 53.6976 711.706 65.4777C711.771 65.6896 711.597 65.8728 711.379 65.9148C711.162 65.9567 710.951 65.7728 710.886 65.5608C708.956 54.035 704.829 46.4871 698.595 43.0867C693.02 40.0828 687.168 41.1733 681.485 42.1936C675.778 43.2561 669.852 44.3606 664.136 41.2718C663.952 41.0455 663.716 40.9039 663.48 40.7622Z" fill="#1BA364"/>
<path d="M651.122 15.1956L631.217 17.1489L631.249 17.4714L631.291 17.7927L651.122 15.1956ZM651.47 14.8291L649.091 34.6871L650.258 34.8269L651.433 34.829L651.47 14.8291ZM651.891 15.197L631.902 14.5416L631.848 16.1698L632.059 17.7852L651.891 15.197ZM664.496 40.5664L654.991 58.1637L655.011 58.1742L655.031 58.1847L664.496 40.5664ZM681.272 41.3742L677.731 21.6901L677.67 21.7012L677.608 21.7126L681.272 41.3742ZM698.954 42.3813L689.426 59.9657L689.447 59.977L689.468 59.9883L698.954 42.3813ZM711.706 65.4777L691.98 68.7756L692.199 70.0859L692.589 71.3557L711.706 65.4777ZM710.886 65.5608L691.161 68.8634L691.38 70.1713L691.769 71.4389L710.886 65.5608ZM698.595 43.0867L708.171 25.5286L708.127 25.5043L708.082 25.4803L698.595 43.0867ZM681.485 42.1936L677.951 22.5083L677.888 22.5197L677.825 22.5314L681.485 42.1936ZM664.136 41.2718L648.649 53.9263L651.15 56.9875L654.628 58.8669L664.136 41.2718ZM673.781 23.6189C674.623 24.1252 674.313 24.3715 673.512 22.7134C672.662 20.9529 671.63 17.772 670.952 12.5985L631.291 17.7927C633.228 32.5855 638.597 49.1439 653.179 57.9056L673.781 23.6189ZM671.026 13.2422C671.499 18.0624 670.19 23.3304 666.644 27.6397C662.553 32.6126 656.023 35.5176 649.091 34.6871L653.849 -5.02892C646.678 -5.88811 639.965 -2.89172 635.755 2.22572C632.091 6.6796 630.726 12.1452 631.217 17.1489L671.026 13.2422ZM651.433 34.829C647.095 34.821 642.903 33.3754 639.492 30.7271C635.793 27.8559 631.647 22.3001 631.902 14.5416L671.88 15.8523C672.142 7.86794 667.882 2.12835 664.019 -0.87023C660.444 -3.64585 656.038 -5.16248 651.507 -5.17088L651.433 34.829ZM632.059 17.7852C633.997 32.6322 639.497 49.7949 654.991 58.1637L674.001 22.9692C675.16 23.5955 675.012 24.1124 674.264 22.6072C673.455 20.9781 672.408 17.8597 671.723 12.6087L632.059 17.7852ZM655.031 58.1847C667.596 64.9355 680.196 61.9189 684.935 61.0358L677.608 21.7126C676.07 21.9992 675.048 22.1864 674.114 22.3199C673.226 22.4469 672.756 22.4726 672.535 22.4748C672.345 22.4766 672.487 22.4583 672.833 22.5336C673.21 22.6153 673.613 22.7609 673.962 22.9482L655.031 58.1847ZM684.812 61.0583C686.37 60.7782 687.409 60.5921 688.395 60.4564C689.329 60.3279 689.878 60.2958 690.196 60.2943C690.488 60.2929 690.464 60.3191 690.241 60.2701C689.989 60.2148 689.69 60.109 689.426 59.9657L708.483 24.7969C695.528 17.7772 682.422 20.8464 677.731 21.6901L684.812 61.0583ZM689.468 59.9883C688.686 59.5673 688.851 59.2786 689.512 60.4787C690.241 61.802 691.245 64.3782 691.98 68.7756L731.432 62.1797C729.086 48.1452 723.071 32.6571 708.441 24.7744L689.468 59.9883ZM692.589 71.3557C690.426 64.3204 692.517 57.6176 696.09 53.1933C699.331 49.1803 703.622 47.0417 707.595 46.2761L715.164 85.5534C719.354 84.7459 723.841 82.4948 727.208 78.3266C730.906 73.7472 733.051 66.8468 730.823 59.5996L692.589 71.3557ZM707.595 46.2761C714.362 44.9719 719.923 47.4215 723.223 49.9445C726.448 52.4104 728.813 55.813 730.003 59.6828L691.769 71.4389C693.024 75.5206 695.527 79.1212 698.928 81.7216C702.404 84.379 708.179 86.8996 715.164 85.5534L707.595 46.2761ZM730.612 62.2583C728.315 48.5438 722.496 33.3415 708.171 25.5286L689.018 60.6447C688.127 60.1589 688.208 59.777 688.807 60.8732C689.477 62.0971 690.44 64.5617 691.161 68.8634L730.612 62.2583ZM708.082 25.4803C695.386 18.6385 682.359 21.7168 677.951 22.5083L685.02 61.8788C686.54 61.6058 687.555 61.4243 688.516 61.2911C689.429 61.1647 689.957 61.1329 690.252 61.1303C690.524 61.128 690.46 61.1528 690.183 61.0934C689.874 61.0272 689.484 60.8963 689.107 60.6931L708.082 25.4803ZM677.825 22.5314C676.326 22.8105 675.314 22.9957 674.37 23.1292C673.471 23.2563 672.949 23.2878 672.657 23.2901C672.389 23.2922 672.441 23.2677 672.696 23.3229C672.98 23.3846 673.325 23.5038 673.645 23.6766L654.628 58.8669C667.48 65.8121 680.518 62.7172 685.146 61.8557L677.825 22.5314ZM679.624 28.6172C678.171 26.8392 676.692 25.6142 675.619 24.8308C675.092 24.4467 674.639 24.1517 674.338 23.9615C674.059 23.7851 673.807 23.6349 673.781 23.6189L653.179 57.9056C653.424 58.0528 652.768 57.6738 652.036 57.1397C651.186 56.5191 649.917 55.4781 648.649 53.9263L679.624 28.6172Z" fill="#1BA364" mask="url(#path-7-inside-1)"/>
<line x1="757.552" y1="110.421" x2="705.333" y2="146.298" stroke="#1BA364" stroke-width="3"/>
<mask id="path-10-inside-2" fill="white">
<path d="M283.48 137.762C276.974 133.853 272.833 125.26 271.122 112.196C271.104 112.012 271.231 111.8 271.47 111.829C271.663 111.829 271.898 111.971 271.891 112.197C273.62 125.445 277.859 133.982 284.496 137.566C289.929 140.485 295.419 139.465 301.272 138.374C307.099 137.326 313.097 136.207 318.954 139.381C325.45 142.881 329.737 150.698 331.706 162.478C331.771 162.69 331.597 162.873 331.379 162.915C331.162 162.957 330.951 162.773 330.886 162.561C328.956 151.035 324.829 143.487 318.595 140.087C313.02 137.083 307.168 138.173 301.485 139.194C295.778 140.256 289.852 141.361 284.136 138.272C283.952 138.045 283.716 137.904 283.48 137.762Z"/>
</mask>
<path d="M283.48 137.762C276.974 133.853 272.833 125.26 271.122 112.196C271.104 112.012 271.231 111.8 271.47 111.829C271.663 111.829 271.898 111.971 271.891 112.197C273.62 125.445 277.859 133.982 284.496 137.566C289.929 140.485 295.419 139.465 301.272 138.374C307.099 137.326 313.097 136.207 318.954 139.381C325.45 142.881 329.737 150.698 331.706 162.478C331.771 162.69 331.597 162.873 331.379 162.915C331.162 162.957 330.951 162.773 330.886 162.561C328.956 151.035 324.829 143.487 318.595 140.087C313.02 137.083 307.168 138.173 301.485 139.194C295.778 140.256 289.852 141.361 284.136 138.272C283.952 138.045 283.716 137.904 283.48 137.762Z" fill="#1BA364"/>
<path d="M271.122 112.196L251.217 114.149L251.249 114.471L251.291 114.793L271.122 112.196ZM271.47 111.829L269.091 131.687L270.258 131.827L271.433 131.829L271.47 111.829ZM271.891 112.197L251.902 111.542L251.848 113.17L252.059 114.785L271.891 112.197ZM284.496 137.566L274.991 155.164L275.011 155.174L275.031 155.185L284.496 137.566ZM301.272 138.374L297.731 118.69L297.67 118.701L297.608 118.713L301.272 138.374ZM318.954 139.381L309.426 156.966L309.447 156.977L309.468 156.988L318.954 139.381ZM331.706 162.478L311.98 165.776L312.199 167.086L312.589 168.356L331.706 162.478ZM330.886 162.561L311.161 165.863L311.38 167.171L311.769 168.439L330.886 162.561ZM318.595 140.087L328.171 122.529L328.127 122.504L328.082 122.48L318.595 140.087ZM301.485 139.194L297.951 119.508L297.888 119.52L297.825 119.531L301.485 139.194ZM284.136 138.272L268.649 150.926L271.15 153.987L274.628 155.867L284.136 138.272ZM293.781 120.619C294.623 121.125 294.313 121.371 293.512 119.713C292.662 117.953 291.63 114.772 290.952 109.598L251.291 114.793C253.228 129.585 258.597 146.144 273.179 154.906L293.781 120.619ZM291.026 110.242C291.499 115.062 290.19 120.33 286.644 124.64C282.553 129.613 276.023 132.518 269.091 131.687L273.849 91.9711C266.678 91.1119 259.965 94.1083 255.755 99.2257C252.091 103.68 250.726 109.145 251.217 114.149L291.026 110.242ZM271.433 131.829C267.095 131.821 262.903 130.375 259.492 127.727C255.793 124.856 251.647 119.3 251.902 111.542L291.88 112.852C292.142 104.868 287.882 99.1283 284.019 96.1298C280.444 93.3541 276.038 91.8375 271.507 91.8291L271.433 131.829ZM252.059 114.785C253.997 129.632 259.497 146.795 274.991 155.164L294.001 119.969C295.16 120.596 295.012 121.112 294.264 119.607C293.455 117.978 292.408 114.86 291.723 109.609L252.059 114.785ZM275.031 155.185C287.596 161.935 300.196 158.919 304.935 158.036L297.608 118.713C296.07 118.999 295.048 119.186 294.114 119.32C293.226 119.447 292.756 119.473 292.535 119.475C292.345 119.477 292.487 119.458 292.833 119.534C293.21 119.615 293.613 119.761 293.962 119.948L275.031 155.185ZM304.812 158.058C306.37 157.778 307.409 157.592 308.395 157.456C309.329 157.328 309.878 157.296 310.196 157.294C310.488 157.293 310.464 157.319 310.241 157.27C309.989 157.215 309.69 157.109 309.426 156.966L328.483 121.797C315.528 114.777 302.422 117.846 297.731 118.69L304.812 158.058ZM309.468 156.988C308.686 156.567 308.851 156.279 309.512 157.479C310.241 158.802 311.245 161.378 311.98 165.776L351.432 159.18C349.086 145.145 343.071 129.657 328.441 121.774L309.468 156.988ZM312.589 168.356C310.426 161.32 312.517 154.618 316.09 150.193C319.331 146.18 323.622 144.042 327.595 143.276L335.164 182.553C339.354 181.746 343.841 179.495 347.208 175.327C350.906 170.747 353.051 163.847 350.823 156.6L312.589 168.356ZM327.595 143.276C334.362 141.972 339.923 144.421 343.223 146.944C346.448 149.41 348.813 152.813 350.003 156.683L311.769 168.439C313.024 172.521 315.527 176.121 318.928 178.722C322.404 181.379 328.179 183.9 335.164 182.553L327.595 143.276ZM350.612 159.258C348.315 145.544 342.496 130.341 328.171 122.529L309.018 157.645C308.127 157.159 308.208 156.777 308.807 157.873C309.477 159.097 310.44 161.562 311.161 165.863L350.612 159.258ZM328.082 122.48C315.386 115.638 302.359 118.717 297.951 119.508L305.02 158.879C306.54 158.606 307.555 158.424 308.516 158.291C309.429 158.165 309.957 158.133 310.252 158.13C310.524 158.128 310.46 158.153 310.183 158.093C309.874 158.027 309.484 157.896 309.107 157.693L328.082 122.48ZM297.825 119.531C296.326 119.81 295.314 119.996 294.37 120.129C293.471 120.256 292.949 120.288 292.657 120.29C292.389 120.292 292.441 120.268 292.696 120.323C292.98 120.385 293.325 120.504 293.645 120.677L274.628 155.867C287.48 162.812 300.518 159.717 305.146 158.856L297.825 119.531ZM299.624 125.617C298.171 123.839 296.692 122.614 295.619 121.831C295.092 121.447 294.639 121.152 294.338 120.961C294.059 120.785 293.807 120.635 293.781 120.619L273.179 154.906C273.424 155.053 272.768 154.674 272.036 154.14C271.186 153.519 269.917 152.478 268.649 150.926L299.624 125.617Z" fill="#1BA364" mask="url(#path-10-inside-2)"/>
<mask id="path-12-inside-3" fill="white">
<path d="M515.48 222.762C508.974 218.853 504.833 210.26 503.122 197.196C503.104 197.012 503.231 196.8 503.47 196.829C503.663 196.829 503.898 196.971 503.891 197.197C505.62 210.445 509.859 218.982 516.496 222.566C521.929 225.485 527.419 224.465 533.272 223.374C539.099 222.326 545.097 221.207 550.954 224.381C557.45 227.881 561.737 235.698 563.706 247.478C563.771 247.69 563.597 247.873 563.379 247.915C563.162 247.957 562.951 247.773 562.886 247.561C560.956 236.035 556.829 228.487 550.595 225.087C545.02 222.083 539.168 223.173 533.485 224.194C527.778 225.256 521.852 226.361 516.136 223.272C515.952 223.045 515.716 222.904 515.48 222.762Z"/>
</mask>
<path d="M515.48 222.762C508.974 218.853 504.833 210.26 503.122 197.196C503.104 197.012 503.231 196.8 503.47 196.829C503.663 196.829 503.898 196.971 503.891 197.197C505.62 210.445 509.859 218.982 516.496 222.566C521.929 225.485 527.419 224.465 533.272 223.374C539.099 222.326 545.097 221.207 550.954 224.381C557.45 227.881 561.737 235.698 563.706 247.478C563.771 247.69 563.597 247.873 563.379 247.915C563.162 247.957 562.951 247.773 562.886 247.561C560.956 236.035 556.829 228.487 550.595 225.087C545.02 222.083 539.168 223.173 533.485 224.194C527.778 225.256 521.852 226.361 516.136 223.272C515.952 223.045 515.716 222.904 515.48 222.762Z" fill="#1BA364"/>
<path d="M503.122 197.196L483.217 199.149L483.249 199.471L483.291 199.793L503.122 197.196ZM503.47 196.829L501.091 216.687L502.258 216.827L503.433 216.829L503.47 196.829ZM503.891 197.197L483.902 196.542L483.848 198.17L484.059 199.785L503.891 197.197ZM516.496 222.566L506.991 240.164L507.011 240.174L507.031 240.185L516.496 222.566ZM533.272 223.374L529.731 203.69L529.67 203.701L529.608 203.713L533.272 223.374ZM550.954 224.381L541.426 241.966L541.447 241.977L541.468 241.988L550.954 224.381ZM563.706 247.478L543.98 250.776L544.199 252.086L544.589 253.356L563.706 247.478ZM562.886 247.561L543.161 250.863L543.38 252.171L543.769 253.439L562.886 247.561ZM550.595 225.087L560.171 207.529L560.127 207.504L560.082 207.48L550.595 225.087ZM533.485 224.194L529.951 204.508L529.888 204.52L529.825 204.531L533.485 224.194ZM516.136 223.272L500.649 235.926L503.15 238.987L506.628 240.867L516.136 223.272ZM525.781 205.619C526.623 206.125 526.313 206.371 525.512 204.713C524.662 202.953 523.63 199.772 522.952 194.598L483.291 199.793C485.228 214.585 490.597 231.144 505.179 239.906L525.781 205.619ZM523.026 195.242C523.499 200.062 522.19 205.33 518.644 209.64C514.553 214.613 508.023 217.518 501.091 216.687L505.849 176.971C498.678 176.112 491.965 179.108 487.755 184.226C484.091 188.68 482.726 194.145 483.217 199.149L523.026 195.242ZM503.433 216.829C499.095 216.821 494.903 215.375 491.492 212.727C487.793 209.856 483.647 204.3 483.902 196.542L523.88 197.852C524.142 189.868 519.882 184.128 516.019 181.13C512.444 178.354 508.038 176.838 503.507 176.829L503.433 216.829ZM484.059 199.785C485.997 214.632 491.497 231.795 506.991 240.164L526.001 204.969C527.16 205.596 527.012 206.112 526.264 204.607C525.455 202.978 524.408 199.86 523.723 194.609L484.059 199.785ZM507.031 240.185C519.596 246.935 532.196 243.919 536.935 243.036L529.608 203.713C528.07 203.999 527.048 204.186 526.114 204.32C525.226 204.447 524.756 204.473 524.535 204.475C524.345 204.477 524.487 204.458 524.833 204.534C525.21 204.615 525.613 204.761 525.962 204.948L507.031 240.185ZM536.812 243.058C538.37 242.778 539.409 242.592 540.395 242.456C541.329 242.328 541.878 242.296 542.196 242.294C542.488 242.293 542.464 242.319 542.241 242.27C541.989 242.215 541.69 242.109 541.426 241.966L560.483 206.797C547.528 199.777 534.422 202.846 529.731 203.69L536.812 243.058ZM541.468 241.988C540.686 241.567 540.851 241.279 541.512 242.479C542.241 243.802 543.245 246.378 543.98 250.776L583.432 244.18C581.086 230.145 575.071 214.657 560.441 206.774L541.468 241.988ZM544.589 253.356C542.426 246.32 544.517 239.618 548.09 235.193C551.331 231.18 555.622 229.042 559.595 228.276L567.164 267.553C571.354 266.746 575.841 264.495 579.208 260.327C582.906 255.747 585.051 248.847 582.823 241.6L544.589 253.356ZM559.595 228.276C566.362 226.972 571.923 229.421 575.223 231.944C578.448 234.41 580.813 237.813 582.003 241.683L543.769 253.439C545.024 257.521 547.527 261.121 550.928 263.722C554.404 266.379 560.179 268.9 567.164 267.553L559.595 228.276ZM582.612 244.258C580.315 230.544 574.496 215.341 560.171 207.529L541.018 242.645C540.127 242.159 540.208 241.777 540.807 242.873C541.477 244.097 542.44 246.562 543.161 250.863L582.612 244.258ZM560.082 207.48C547.386 200.638 534.359 203.717 529.951 204.508L537.02 243.879C538.54 243.606 539.555 243.424 540.516 243.291C541.429 243.165 541.957 243.133 542.252 243.13C542.524 243.128 542.46 243.153 542.183 243.093C541.874 243.027 541.484 242.896 541.107 242.693L560.082 207.48ZM529.825 204.531C528.326 204.81 527.314 204.996 526.37 205.129C525.471 205.256 524.949 205.288 524.657 205.29C524.389 205.292 524.441 205.268 524.696 205.323C524.98 205.385 525.325 205.504 525.645 205.677L506.628 240.867C519.48 247.812 532.518 244.717 537.146 243.856L529.825 204.531ZM531.624 210.617C530.171 208.839 528.692 207.614 527.619 206.831C527.092 206.447 526.639 206.152 526.338 205.961C526.059 205.785 525.807 205.635 525.781 205.619L505.179 239.906C505.424 240.053 504.768 239.674 504.036 239.14C503.186 238.519 501.917 237.478 500.649 235.926L531.624 210.617Z" fill="#1BA364" mask="url(#path-12-inside-3)"/>
<path d="M442.996 199.901L413.225 197L410 223.783L439.771 226.685L442.996 199.901Z" fill="#1BA364"/>
<path d="M742.955 199.031L713.789 177L696 199.471L725.166 221.502L742.955 199.031Z" fill="#1BA364"/>
<mask id="path-16-inside-4" fill="white">
<path d="M360.044 214C357.761 214 355.39 213.22 353.634 211.659C350.122 208.537 350.122 203.463 353.634 200.341C357.146 197.22 362.854 197.22 366.366 200.341C369.878 203.463 369.878 208.537 366.366 211.659C364.698 213.22 362.415 214 360.044 214ZM360.044 199.171C358.112 199.171 356.093 199.873 354.6 201.2C351.615 203.854 351.615 208.224 354.6 210.878C357.585 213.532 362.502 213.532 365.488 210.878C368.473 208.224 368.473 203.854 365.488 201.2C363.995 199.795 362.063 199.171 360.044 199.171Z"/>
</mask>
<path d="M360.044 214C357.761 214 355.39 213.22 353.634 211.659C350.122 208.537 350.122 203.463 353.634 200.341C357.146 197.22 362.854 197.22 366.366 200.341C369.878 203.463 369.878 208.537 366.366 211.659C364.698 213.22 362.415 214 360.044 214ZM360.044 199.171C358.112 199.171 356.093 199.873 354.6 201.2C351.615 203.854 351.615 208.224 354.6 210.878C357.585 213.532 362.502 213.532 365.488 210.878C368.473 208.224 368.473 203.854 365.488 201.2C363.995 199.795 362.063 199.171 360.044 199.171Z" fill="black"/>
<path d="M366.366 211.659L356.4 200.447L356.257 200.575L356.117 200.705L366.366 211.659ZM365.488 201.2L355.207 212.123L355.363 212.269L355.522 212.411L365.488 201.2ZM360.044 199C360.584 199 361.122 199.088 361.667 199.281C362.217 199.477 362.904 199.829 363.6 200.447L343.669 222.87C348.508 227.171 354.565 229 360.044 229V199ZM363.6 200.447C364.955 201.652 366 203.644 366 206C366 208.356 364.955 210.348 363.6 211.553L343.669 189.13C333.444 198.219 333.444 213.781 343.669 222.87L363.6 200.447ZM363.6 211.553C362.333 212.678 360.981 213 360 213C359.019 213 357.667 212.678 356.4 211.553L376.331 189.13C367.136 180.957 352.864 180.957 343.669 189.13L363.6 211.553ZM356.4 211.553C355.045 210.348 354 208.356 354 206C354 203.644 355.045 201.652 356.4 200.447L376.331 222.87C386.556 213.781 386.556 198.219 376.331 189.13L356.4 211.553ZM356.117 200.705C357.653 199.269 359.233 199 360.044 199V229C365.596 229 371.742 227.17 376.614 222.612L356.117 200.705ZM360.044 184.171C354.709 184.171 349.069 186.047 344.635 189.989L364.565 212.411C363.794 213.097 363.007 213.52 362.313 213.774C361.623 214.027 360.867 214.171 360.044 214.171V184.171ZM344.635 189.989C334.936 198.609 334.936 213.469 344.635 222.089L364.565 199.667C366.226 201.143 367.361 203.445 367.361 206.039C367.361 208.633 366.226 210.935 364.565 212.411L344.635 189.989ZM344.635 222.089C353.303 229.795 366.785 229.795 375.453 222.089L355.522 199.667C357.084 198.278 358.781 197.868 360.044 197.868C361.306 197.868 363.003 198.278 364.565 199.667L344.635 222.089ZM375.453 222.089C385.151 213.469 385.151 198.609 375.453 189.989L355.522 212.411C353.862 210.935 352.727 208.633 352.727 206.039C352.727 203.445 353.862 201.143 355.522 199.667L375.453 222.089ZM375.768 190.277C371.009 185.798 365.164 184.171 360.044 184.171V214.171C358.963 214.171 356.981 213.792 355.207 212.123L375.768 190.277Z" fill="#1D6227" mask="url(#path-16-inside-4)"/>
<path d="M638.363 225.047C642.982 225.047 646.726 221.679 646.726 217.524C646.726 213.368 642.982 210 638.363 210C633.744 210 630 213.368 630 217.524C630 221.679 633.744 225.047 638.363 225.047Z" fill="#1BA364"/>
<path d="M309.363 189.047C313.982 189.047 317.726 185.679 317.726 181.524C317.726 177.368 313.982 174 309.363 174C304.744 174 301 177.368 301 181.524C301 185.679 304.744 189.047 309.363 189.047Z" fill="#1BA364"/>
</svg>
