<svg width="355" height="347" viewBox="0 0 355 347" fill="none" xmlns="http://www.w3.org/2000/svg">
<circle cx="173.012" cy="173.012" r="173.012" fill="#7846C6"/>
<circle cx="173.943" cy="173.944" r="158.559" stroke="white"/>
<path d="M96.8752 66.6272L89.2214 63.1584L92.1741 71.217L78.9283 65.041L80.6892 63.3405L88.9673 67.5076L86.6578 61.9807L83.5508 60.5771L85.0398 59.1392L93.3629 62.9125L89.481 54.8503L91.0995 53.2874L96.8752 66.6272Z" fill="white"/>
<path d="M72.3552 256.318L63.6313 266.715L62.0318 265.373L66.9028 259.568L59.1983 261.609L59.1707 261.586L59.729 253.948L55.0547 259.518L53.4965 258.211L62.2204 247.814L62.2342 247.826L61.2925 259.113L72.3276 256.295L72.3552 256.318Z" fill="white"/>
<path d="M94.0432 278.929L85.0171 283.523L82.6416 287.045L80.9106 285.877L83.286 282.355L84.224 272.306L86.358 273.745L85.5499 280.995L91.9092 277.489L94.0432 278.929Z" fill="white"/>
<path d="M216.017 297.049C217.392 296.479 218.609 296.377 219.67 296.743C220.731 297.109 221.514 297.902 222.019 299.121C222.308 299.82 222.441 300.531 222.416 301.256C222.387 301.969 222.142 302.649 221.682 303.294C221.228 303.924 220.519 304.438 219.555 304.838L217.809 305.561L219.551 309.768L217.606 310.574L212.591 298.468L216.017 297.049ZM218.783 302.975C219.315 302.755 219.696 302.467 219.926 302.112C220.162 301.741 220.28 301.368 220.28 300.991C220.286 300.599 220.228 300.253 220.104 299.954C219.892 299.444 219.531 299.041 219.019 298.747C218.519 298.448 217.88 298.459 217.104 298.78L215.308 299.524L217.037 303.698L218.783 302.975Z" fill="white"/>
<path d="M243.576 284.71L248.952 294.407L254.604 291.275L255.581 293.038L248.087 297.192L241.734 285.731L243.576 284.71Z" fill="white"/>
<path d="M274.981 273.67L271.55 276.983L272.782 280.073L271.293 281.51L265.984 267.67L266.075 267.582L279.722 273.37L277.987 275.046L274.981 273.67ZM273.226 272.862L269.172 271.022L270.831 275.176L273.226 272.862Z" fill="white"/>
<path d="M291.002 236.27L302.696 243.159L302.669 243.205L289.978 246.697L297.497 251.063L296.419 252.894L284.74 246.014L284.795 245.921L297.56 242.515L289.942 238.069L291.002 236.27Z" fill="white"/>
<path d="M305.598 212.136L307.369 213.098L305.755 216.072L315.499 221.363L314.503 223.198L304.758 217.907L303.186 220.802L301.415 219.84L305.598 212.136Z" fill="white"/>
<path d="M313.997 188.656C312.955 189.385 312.231 190.138 311.827 190.915C311.528 191.49 311.417 192.014 311.495 192.488C311.579 192.951 311.844 193.299 312.291 193.531C312.728 193.759 313.203 193.742 313.717 193.482C314.226 193.206 314.821 192.765 315.502 192.159C316.003 191.689 316.492 191.321 316.969 191.056C317.441 190.773 317.969 190.616 318.555 190.582C319.14 190.549 319.774 190.71 320.455 191.064C321.072 191.386 321.551 191.831 321.89 192.4C322.23 192.969 322.396 193.624 322.39 194.364C322.383 195.105 322.172 195.874 321.756 196.673C321.39 197.375 320.924 198.012 320.356 198.582C319.778 199.147 319.159 199.596 318.499 199.928L317.478 198.342C317.981 198.103 318.472 197.77 318.952 197.343C319.426 196.9 319.782 196.45 320.02 195.992C320.314 195.428 320.439 194.864 320.394 194.3C320.339 193.73 320.029 193.298 319.465 193.004C319.018 192.772 318.551 192.759 318.065 192.965C317.584 193.162 317.055 193.515 316.478 194.026C315.889 194.559 315.365 194.982 314.903 195.297C314.431 195.606 313.899 195.809 313.307 195.907C312.71 195.988 312.087 195.86 311.438 195.522C310.49 195.029 309.895 194.313 309.653 193.376C309.406 192.422 309.535 191.407 310.041 190.331C310.44 189.564 310.879 188.941 311.36 188.46C311.835 187.963 312.362 187.548 312.942 187.214L313.997 188.656Z" fill="white"/>
<path d="M132.123 45.4664L127.641 47.0979L127.51 50.4212L125.564 51.1292L126.344 36.3257L126.463 36.2826L136.576 47.1214L134.309 47.9463L132.123 45.4664ZM130.848 44.0151L127.893 40.685L127.719 45.154L130.848 44.0151Z" fill="white"/>
<path d="M178.564 30.2859L178.599 32.3015L175.216 32.3606L175.409 43.4469L173.321 43.4834L173.128 32.397L169.834 32.4545L169.799 30.4388L178.564 30.2859Z" fill="white"/>
<path d="M219.489 33.0931L219.156 35.0814L212.658 33.9941L212.082 37.4382L217.869 38.4067L217.537 40.395L211.749 39.4265L211.161 42.9417L217.907 44.0706L217.574 46.0589L208.751 44.5824L210.914 31.6581L219.489 33.0931Z" fill="white"/>
<path d="M252.182 58.5668L250.736 53.3359L250.53 53.2709L248.727 52.7026L247.358 57.0458L245.349 56.4125L249.29 43.915L252.809 45.0246C254.205 45.4649 255.209 46.1715 255.821 47.1445C256.444 48.1211 256.557 49.2388 256.16 50.4977C255.919 51.2645 255.527 51.9275 254.986 52.4866C254.46 53.0379 253.792 53.3809 252.982 53.5156L254.499 59.2975L252.182 58.5668ZM249.334 50.7799L251.119 51.3428C251.92 51.5954 252.567 51.5602 253.058 51.2372C253.565 50.9063 253.906 50.4662 254.079 49.9169C254.18 49.5964 254.212 49.2543 254.176 48.8906C254.143 48.5154 253.997 48.161 253.737 47.8275C253.481 47.4825 253.084 47.2252 252.546 47.0556L250.692 46.471L249.334 50.7799Z" fill="white"/>
<path d="M126.503 87.912C126.503 87.912 152.263 114.074 173.011 87.9127C193.76 61.7516 221.38 87.9112 221.38 87.9112" stroke="white"/>
<path d="M126.503 99.9979C126.503 99.9979 152.263 126.16 173.011 99.9985C193.76 73.8375 221.38 99.9971 221.38 99.9971" stroke="white"/>
<path d="M226.457 246.102C226.457 246.102 205.106 216.233 180.521 238.826C155.935 261.419 132.747 231.261 132.747 231.261" stroke="white"/>
<path d="M223.584 260.12C223.584 260.12 202.234 230.251 177.649 252.844C153.063 275.437 129.875 245.279 129.875 245.279" stroke="white"/>
<circle cx="249.285" cy="137.669" r="6.51119" fill="white"/>
<circle cx="45.5756" cy="183.238" r="6.51119" fill="white"/>
<circle cx="74.3588" cy="98.9233" r="6.51119" fill="white"/>
<rect x="80.9248" y="138.879" width="4.65085" height="32.2417" rx="2.32542" transform="rotate(-41.5 80.9248 138.879)" fill="white"/>
<rect x="149.732" y="287.34" width="4.65085" height="32.2417" rx="2.32542" transform="rotate(-41.5 149.732 287.34)" fill="white"/>
<rect x="54.9795" y="214.812" width="4.65085" height="32.2417" rx="2.32542" transform="rotate(-41.5 54.9795 214.812)" fill="white"/>
<rect x="273.603" y="191.717" width="3.44108" height="32.2417" rx="1.72054" transform="rotate(27.5 273.603 191.717)" fill="white"/>
<rect x="275.335" y="146.963" width="2.74269" height="32.2417" rx="1.37135" transform="rotate(27.5 275.335 146.963)" fill="white"/>
<rect x="250.218" y="85.3945" width="5.44324" height="32.2417" rx="2.72162" transform="rotate(14.5 250.218 85.3945)" fill="white"/>
<rect x="278.827" y="100.268" width="4.65085" height="32.2417" rx="2.32542" transform="rotate(-24.5 278.827 100.268)" fill="white"/>
<path d="M89.2063 197.276C89.4463 195.888 91.0079 195.176 92.213 195.906L102.361 202.05C103.736 202.883 103.617 204.914 102.154 205.581L89.9859 211.126C88.5235 211.793 86.912 210.55 87.1858 208.966L89.2063 197.276Z" fill="white"/>
<path d="M112.825 256.266C113.064 254.878 114.626 254.167 115.831 254.896L125.979 261.04C127.354 261.873 127.235 263.905 125.773 264.571L113.604 270.117C112.142 270.783 110.53 269.54 110.804 267.956L112.825 256.266Z" fill="white"/>
<path d="M52.5731 120.826C53.71 119.994 55.3277 120.567 55.6877 121.929L58.7194 133.398C59.1302 134.952 57.6332 136.331 56.1182 135.794L43.5127 131.331C41.9977 130.794 41.7022 128.78 42.9993 127.831L52.5731 120.826Z" fill="white"/>
<path d="M230.956 180.917C231.196 179.529 232.758 178.817 233.963 179.547L244.111 185.691C245.486 186.523 245.367 188.555 243.904 189.222L231.736 194.767C230.273 195.434 228.662 194.19 228.936 192.607L230.956 180.917Z" fill="white"/>
<path d="M295.931 154.126C296.171 152.738 297.733 152.026 298.938 152.756L309.086 158.9C310.46 159.732 310.342 161.764 308.879 162.431L296.711 167.976C295.248 168.643 293.637 167.399 293.91 165.815L295.931 154.126Z" fill="white"/>
<path d="M238.396 222.776C238.636 221.388 240.197 220.676 241.402 221.406L251.55 227.55C252.925 228.383 252.806 230.414 251.344 231.081L239.175 236.626C237.713 237.293 236.101 236.05 236.375 234.466L238.396 222.776Z" fill="white"/>
<path d="M190.651 278.124C190.891 276.736 192.452 276.024 193.657 276.754L203.805 282.898C205.18 283.73 205.061 285.762 203.599 286.429L191.43 291.974C189.968 292.641 188.356 291.397 188.63 289.814L190.651 278.124Z" fill="white"/>
<path d="M100.577 100.317C100.817 98.929 102.379 98.2173 103.584 98.9469L113.732 105.091C115.107 105.924 114.988 107.955 113.526 108.622L101.357 114.167C99.8946 114.834 98.2831 113.591 98.5569 112.007L100.577 100.317Z" fill="white"/>
<path d="M163.199 145.803C163.199 145.803 167.47 139.907 159.546 139.147C151.622 138.387 155.676 134.702 149.876 132.184C147.076 130.962 145.541 132.419 145.405 134.659C145.326 136.002 145.535 136.849 146.583 138.811C148.422 142.249 145.553 141.262 144.151 141.845C143.516 142.11 142.376 143.05 142.561 145.231C142.872 148.873 147.85 149.584 148.422 151.237C150.067 155.981 141.633 152.549 144.169 158.201C147.288 165.164 160.501 167.552 163.361 163.574C166.437 159.3 167.409 155.639 164.603 152.967C161.797 150.294 162.198 148.049 163.199 145.803Z" fill="#ABE5B4" stroke="#04393B" stroke-width="1.04" stroke-miterlimit="10"/>
<path d="M164.593 111.982C166.665 112.753 168.921 117.657 172.341 116.712C175.76 115.766 183.132 101.175 192.424 104.048C201.613 106.888 200.445 113.155 195.217 116.336C191.841 118.39 181.182 122.192 182.72 125.713C184.259 129.234 188.49 127.715 188.31 131.149C188.13 134.582 178.899 132.596 178.006 137.233C177.112 141.869 182.739 142.926 181.778 147.957C180.817 152.988 173.145 158.577 167.064 157.808C160.982 157.039 156.764 151.329 156.344 148.405C155.925 145.48 157.839 146.217 158.503 144.7C159.166 143.184 157.608 141.594 155.11 138.927C152.611 136.259 151.152 126.848 154.038 124.898C156.923 122.949 159.237 125.479 160.099 123.386C160.961 121.293 158.7 118.213 159.553 114.955C160.211 112.438 161.794 110.944 164.593 111.982Z" fill="#ABE5B4" stroke="#04393B" stroke-width="1.04" stroke-miterlimit="10"/>
<path d="M187.075 121.915C189.046 122.916 190.733 128.043 194.238 127.491C197.743 126.939 206.718 113.276 215.625 117.182C224.434 121.045 222.564 127.139 217.01 129.707C213.422 131.366 202.402 133.937 203.532 137.61C204.662 141.282 209.038 140.252 208.47 143.643C207.903 147.034 198.956 144.016 197.543 148.522C196.13 153.027 201.602 154.714 200.078 159.604C198.554 164.494 190.298 169.178 184.342 167.725C178.387 166.273 174.842 160.123 174.757 157.17C174.671 154.216 176.489 155.165 177.32 153.733C178.151 152.301 176.783 150.546 174.603 147.613C172.422 144.68 172.038 135.163 175.126 133.553C178.213 131.943 180.226 134.718 181.319 132.736C182.413 130.754 180.514 127.439 181.731 124.298C182.67 121.872 184.412 120.566 187.075 121.915Z" fill="#ABE5B4" stroke="#04393B" stroke-width="1.04" stroke-miterlimit="10"/>
<path d="M196.806 107.863C196.806 107.863 184.455 111.095 172.998 132.11C161.102 153.949 168.869 187.414 168.869 187.414" stroke="#04393B" stroke-width="1.04" stroke-miterlimit="10"/>
<path d="M215.956 117.438C215.956 117.438 201.537 118.337 190.08 139.352C178.184 161.191 185.951 194.655 185.951 194.655" stroke="#04393B" stroke-width="1.04" stroke-miterlimit="10"/>
<path d="M163.176 113.254C163.176 113.254 161.775 126.449 171.634 134.872" stroke="#04393B" stroke-width="1.04" stroke-miterlimit="10"/>
<path d="M160.751 114.994C160.751 114.994 160.275 119.021 164.035 122.323" stroke="#04393B" stroke-width="1.04" stroke-miterlimit="10"/>
<path d="M192.536 128.005C192.536 128.005 189.878 128.376 188.387 126.084" stroke="#04393B" stroke-width="1.04" stroke-miterlimit="10"/>
<path d="M184.034 185.413C184.034 185.413 182.294 181.804 184.034 181C185.775 180.196 185.775 182.404 186.811 182.355C187.847 182.305 187.928 178.992 189.341 179.343C190.754 179.694 190.052 181.664 191.358 181C192.663 180.335 193.679 176.775 195.17 178.438C196.513 179.944 194.59 181.299 195.657 181.751C196.725 182.204 198.457 180.646 198.005 182.453C197.552 184.261 195.272 185.216 195.272 185.216L184.034 185.413Z" fill="#ABE5B4" stroke="#04393B" stroke-width="1.04" stroke-miterlimit="10"/>
<path d="M147.562 174.678C145.739 174.542 145.957 176.161 146.935 178.45C147.805 180.481 145.284 179.03 144.782 180.333C144.28 181.635 148.168 182.541 148.304 183.344C148.441 184.148 147.179 183.4 147.353 184.415C147.495 185.265 149.093 185.99 149.093 185.99L155.094 185.918C155.094 185.918 157.275 178.476 154.087 176.793C152.387 175.897 149.903 179.039 149.445 177.33C148.986 175.621 148.992 174.794 147.562 174.678Z" fill="#ABE5B4" stroke="#04393B" stroke-width="1.04" stroke-miterlimit="10"/>
<path d="M165.684 175.473C163.862 175.336 164.079 176.955 165.057 179.245C165.927 181.276 163.406 179.825 162.904 181.128C162.402 182.43 166.29 183.336 166.426 184.139C166.563 184.943 165.301 184.194 165.475 185.21C165.617 186.06 167.216 186.785 167.216 186.785L173.216 186.713C173.216 186.713 175.398 179.271 172.209 177.588C170.509 176.691 168.025 179.834 167.567 178.125C167.108 176.416 167.114 175.589 165.684 175.473Z" fill="#ABE5B4" stroke="#04393B" stroke-width="1.04" stroke-miterlimit="10"/>
<path d="M166.348 185.703C166.336 185.569 166.283 185.441 166.196 185.338C166.11 185.234 165.994 185.159 165.864 185.123C163.644 184.293 165.022 184.253 164.787 181.502C164.552 178.752 163.336 179.66 163.336 177.745C163.336 175.981 164.317 176.071 164.57 173.233C164.822 170.396 160.023 171.373 159.884 169.171C159.364 161.114 155.215 160.351 152.503 161.433C148.121 163.174 154.441 172.705 151.995 172.093C149.323 171.426 148.76 173.254 149.859 175.697C150.707 177.577 153.005 178.995 154.31 180.26C155.218 181.131 154.716 182.216 153.576 182.257C151.226 182.341 152.021 185.033 154.447 185.57C154.876 185.663 155.712 185.86 155.712 185.86L166.348 185.703Z" fill="#ABE5B4" stroke="#04393B" stroke-width="1.04" stroke-miterlimit="10"/>
<path d="M186.093 188.181C186.095 188.046 186.056 187.914 185.981 187.802C185.905 187.69 185.798 187.603 185.672 187.554C183.551 186.496 184.926 186.6 184.98 183.84C185.034 181.08 183.73 181.856 183.93 179.952C184.114 178.197 185.08 178.389 185.628 175.594C186.176 172.798 181.301 173.269 181.393 171.064C181.718 162.997 177.672 161.804 174.861 162.597C170.322 163.87 175.61 174.01 173.241 173.145C170.654 172.202 169.903 173.961 170.741 176.506C171.387 178.464 173.524 180.115 174.69 181.51C175.503 182.47 174.89 183.497 173.752 183.418C171.406 183.256 171.915 186.017 174.271 186.805C174.688 186.942 175.499 187.225 175.499 187.225L186.093 188.181Z" fill="#ABE5B4" stroke="#04393B" stroke-width="1.04" stroke-miterlimit="10"/>
<path d="M147.554 186.013L196.73 185.209L185.487 223.597H153.56L147.554 186.013Z" fill="white"/>
<path d="M147.554 186.013L196.73 185.209L185.487 223.597H153.56L147.554 186.013Z" stroke="#04393B" stroke-width="1.04" stroke-linejoin="round"/>
<path d="M147.482 175.465C147.482 175.465 149.848 177.28 150.384 185.91" stroke="#04393B" stroke-width="1.04" stroke-miterlimit="10"/>
<path d="M141.149 138.176C140.345 137.166 139.556 135.689 138.201 136.519C136.846 137.349 139.481 140.056 140.685 140.056C141.889 140.056 141.628 138.779 141.149 138.176Z" fill="#ABE5B4" stroke="#04393B" stroke-width="1.04" stroke-miterlimit="10"/>
<path d="M165.332 207.588L163.612 203.248L161.682 207.608L158.772 200.028H160.132L161.832 204.888L163.042 201.788L162.342 200.028H163.492L165.362 204.748L166.922 200.028H168.172L165.332 207.588ZM176.888 199.728V207.268H175.728V203.058L173.178 206.678H173.158L170.668 203.228V207.268H169.538V199.728H169.548L173.178 204.868L176.868 199.728H176.888ZM180.944 199.988C181.771 199.988 182.417 200.194 182.884 200.608C183.351 201.021 183.584 201.594 183.584 202.328C183.584 202.748 183.501 203.141 183.334 203.508C183.167 203.868 182.897 204.164 182.524 204.398C182.157 204.624 181.684 204.738 181.104 204.738H180.054V207.268H178.884V199.988H180.944ZM181.104 203.618C181.424 203.618 181.681 203.551 181.874 203.418C182.074 203.278 182.214 203.111 182.294 202.918C182.381 202.718 182.424 202.528 182.424 202.348C182.424 202.041 182.324 201.758 182.124 201.498C181.931 201.238 181.601 201.108 181.134 201.108H180.054V203.618H181.104Z" fill="#895DCD"/>
</svg>
